<?xml version="1.0" encoding="utf-8"?><!-- Uploaded to: SVG Repo, www.svgrepo.com, Generator: SVG Repo Mixer Tools -->
<svg width="800px" height="800px" viewBox="0 0 128 128" xmlns="http://www.w3.org/2000/svg" xmlns:xlink="http://www.w3.org/1999/xlink" aria-hidden="true" role="img" class="iconify iconify--noto" preserveAspectRatio="xMidYMid meet"><path d="M66.87 22.9s1.77-1.09 1.79-3.5c.02-2.64-2.09-3.43-2.09-3.43s1.31-.54 1.33-2.17c.02-1.74-2.25-2.17-2.25-2.17s1.12-1.35 1.04-3.61c-.08-2.33-1.94-4.99-2.57-5.05c-.31-.03-.22 9-.22 9l-.44 10.49l3.1 3.69l.31-3.25z" fill="currentColor"></path><path d="M61.31 22.77s-2.06-1.25-1.92-3.55c.17-2.74 2.66-3.32 2.66-3.32s-1.81-.59-1.7-2.14c.15-1.99 2.44-2.22 2.44-2.22s-1.1-1.18-.96-3.4c.22-3.62 2.29-5.17 2.29-5.17l.08 20.76l-2.89-.96z" fill="currentColor"></path><path d="M50.94 28.54s2.7-7.05 12.95-7c11.34.06 13.18 7.34 13.18 7.34l-16.84 3.13l-9.29-3.47z" fill="currentColor"></path><path fill="currentColor" d="M51.72 33.3l-.05 4.53l12.93 1.23l11.75-.35l.04-5.27z"></path><path d="M47.61 31.38c-.01 2.11 1.64 2.97 3.65 3.02c2.02.06 24.49-.21 26.6-.25c2.11-.04 2.43-1.87 2.45-3.05c.02-1.57-1.04-2.73-2.66-2.8c-1.62-.06-25.87.09-27.15.12c-1.28.02-2.89 1.04-2.89 2.96z" fill="currentColor"></path><path fill="currentColor" d="M24.88 116.41l.2-19.61l2.41-.41l-.1-10.37l2.71-.26v-8.88l1.95-1.61l-.08-7.45l1.86-.68l.08-7.79l5.76-.51l-1.44 59.53z"></path><path fill="currentColor" d="M89.46 60.87l4.15.51l-.09 6.27L95.39 69l-.09 7.96l1.78 1.27v8.05l1.95 1.86l.08 8.3l1.95 1.69l-.09 19.14l-13.22.34z"></path><path d="M89.87 62.41l3.84.1s2.34-1.1 2.26-3.5c-.14-3.93-4.85-5.95-4.85-5.95s1.1-.38 1.01-2.16c-.08-1.39-1.1-2.02-2.21-2.06c-1.1-.05-2.06.91-2.06 1.87s2.01 11.7 2.01 11.7z" fill="currentColor"></path><path d="M39.92 53.39l-.69-1.12s.62-.41.62-2.02c0-.82-.66-1.94-2.1-1.94s-2.19 1.05-2.19 2.16c0 1.2 1 2 1 2s-5.02 2.28-4.94 5.85c.05 2.21 2.06 2.54 2.06 2.54l5.28.14l.96-7.61z" fill="currentColor"></path><path d="M37.65 65.64s-5.52-.16-6-.11s-1.36.78-1.32 1.81c.05 1.03.71 1.57 1.57 1.63s5.95.16 5.95.16l-.2-3.49z" fill="currentColor"></path><path d="M37.02 74.2l-7.6-.27s-1.5.1-1.53 1.83c-.03 1.74 1.68 1.72 1.68 1.72l7.82.28l-.37-3.56z" fill="currentColor"></path><path d="M36.85 84.11s-9.79-.28-10.75-.28s-1.49.72-1.49 1.72s.62 1.72 1.68 1.77c1.06.06 10.51.28 10.51.28l.05-3.49z" fill="currentColor"></path><path d="M36.99 95.41s-12.38-.27-12.96-.27s-1.44.44-1.54 1.7s.53 1.81 1.63 1.87c.73.04 13.48.38 13.48.38l-.61-3.68z" fill="currentColor"></path><path d="M90.2 66.92s4.29.05 5.27.15c.98.1 1.67.81 1.67 1.58s-.64 1.84-1.8 1.84c-1.16 0-6.47.1-6.47-.05s1.33-3.52 1.33-3.52z" fill="currentColor"></path><path d="M90.03 75.33s6.35.17 7.38.23c1.3.08 1.85.84 1.85 1.7s-.75 1.77-1.95 1.72c-1.21-.05-9.02-.09-9.02-.09l1.74-3.56z" fill="currentColor"></path><path d="M89.96 85.08s8.41.02 8.94.06c.54.04 2.41.28 2.4 1.77c-.01 1.43-1.34 1.79-2.28 1.79s-9.64-.04-9.64-.04l.58-3.58z" fill="currentColor"></path><path d="M89.81 95.85s11.46 0 12.49.06c1.34.08 1.77.92 1.75 1.68c-.02.65-.27 1.56-1.92 1.61c-1.65.04-13.21 0-13.21 0l.89-3.35z" fill="currentColor"></path><path d="M51.36 37.65c.19-.01 24.68.1 24.68.1s5.42 1.77 11.08 11.13c4.76 7.88 3.98 17.96 3.98 29.61s-.45 37.5-.45 37.5l-26.84 3.95l-27.49-3.66s-.13-26.05-.13-38.16s1.89-24.33 5.91-30.61c4.56-7.15 9.26-9.86 9.26-9.86z" fill="currentColor"></path><path d="M61.22 59.74c-.16.24-15.15 29.11-15.15 29.11l-.58 28.41l35.54.46l.61-26.2l-14.67-31.78h-5.75z" fill="currentColor"></path><path d="M58.75 63.08c-.29.08-3.33 5-3.08 5.42c.12.21 3.93.26 8.03.26c4.23 0 8.22.13 8.29 0c.13-.26-2.35-5.38-2.61-5.51c-.25-.12-10.33-.25-10.63-.17z" fill="currentColor"></path><path d="M53.88 71.28c-.38.21-4.74 7.73-4.48 8.07c.23.31 6.89.25 13.67.34c7.09.1 14.3.34 14.44.21c.26-.26-3.76-8.11-4.19-8.33c-.21-.1-4.81-.18-9.44-.26c-4.88-.06-9.8-.13-10-.03z" fill="currentColor"></path><path fill="currentColor" d="M44.91 91.15l-.38 25.14l2.43-.12l.37-26.14z"></path><path fill="currentColor" d="M80.13 91.84v25.07l2.67-.68V91.21z"></path><path d="M47.65 82.82c-.63.4-4.87 8.41-4.57 8.8c.15.19 10.07.23 20.16.34c10.43.12 21.03.3 21.14.17c.21-.26-4.83-8.58-5.17-8.8c-.34-.22-31.22-.73-31.56-.51z" fill="currentColor"></path><path d="M15.75 114.91c-.92.46-1.01 8.71-.57 9.44c.44.73 94.4.63 95.12.34s.28-8.71-.15-9.29c-.11-.15-23.97-.07-47.73-.18c-23.28-.12-46.45-.42-46.67-.31z" fill="currentColor"></path><path d="M53.02 97.23c-.14.24-.38 18.84-.38 18.84l21.34-.01s.39-18.14.26-18.45c-.13-.32-21.03-.7-21.22-.38z" fill="currentColor"></path><path d="M51.83 115.87c-.06.62 0 3.87 0 3.87s-1.19-.06-1.25.11c-.14.38-.01 3.35-.01 3.35l24.91 1.16s.11-4.08-.1-4.25c-.15-.12-.99-.1-.99-.1s.17-4-.14-4c-.85.01-6.04.02-11.62-.07c-5.55-.07-10.79-.17-10.8-.07z" fill="currentColor"></path><path fill="currentColor" d="M50.6 124.88l24.88.14l.03-2.51l-24.98-.19z"></path><path fill="currentColor" d="M51.78 117.86l22.67.21l-.05 1.95l-22.58-.27z"></path><path d="M59.84 58.35s1.12-2.65 4.22-2.69c3.33-.04 4.66 2.85 4.66 2.85s1.52.39 1.77 1.49c.16.72-.21 1.28-1.56 1.27c-.94-.01-2.33-.01-4.79-.06c-2.21-.05-3.8-.07-4.74-.09c-1.17-.02-1.82-.51-1.6-1.43c.28-1.25 2.04-1.34 2.04-1.34z" fill="currentColor"></path><path d="M64.22 51.81c-1.45 0-2.01 1.04-2.01 2.17s.76 2.01 2.13 2.01c1.37 0 1.97-.96 2.01-2.13c.02-.89-.93-2.05-2.13-2.05z" fill="currentColor"></path></svg>